PathFileType	4	(X/Y/Z)	Patient4_TMGait_0pt4_02_left_14.trc.trc
DataRate	CameraRate	NumFrames	NumMarkers	Units	OrigDataRate	OrigDataStartFrame	OrigNumFrames
76.086956521739	76.086956521739	4	33	mm	76.086956521739	18	       141
Frame#	Time	Sacral			L.Shoulder			Chest			R.Shoulder			Neck			R.ASIS			L.ASIS			R.Thigh.Superior			R.Thigh.Lateral			R.Thigh.Inferior			R.Patella			L.Thigh.Superior			L.Thigh.Lateral			L.Thigh.Inferior			L.Patella			L.Shank.Superior			L.Shank.Lateral			L.Shank.Inferior			R.Shank.Superior			R.Shank.Lateral			R.Shank.Inferior			R.Heel			R.Midfoot.Superior			R.Midfoot.Lateral			R.Toe			L.Heel			L.Midfoot.Lateral			L.Midfoot.Superior			L.Toe			L.Elbow			L.Wrist			R.Elbow			R.Wrist			
		X1	Y1	Z1	X2	Y2	Z2	X3	Y3	Z3	X4	Y4	Z4	X5	Y5	Z5	X6	Y6	Z6	X7	Y7	Z7	X8	Y8	Z8	X9	Y9	Z9	X10	Y10	Z10	X11	Y11	Z11	X12	Y12	Z12	X13	Y13	Z13	X14	Y14	Z14	X15	Y15	Z15	X16	Y16	Z16	X17	Y17	Z17	X18	Y18	Z18	X19	Y19	Z19	X20	Y20	Z20	X21	Y21	Z21	X22	Y22	Z22	X23	Y23	Z23	X24	Y24	Z24	X25	Y25	Z25	X26	Y26	Z26	X27	Y27	Z27	X28	Y28	Z28	X29	Y29	Z29	X30	Y30	Z30	X31	Y31	Z31	X32	Y32	Z32	X33	Y33	Z33	

18	18.903428571429	840.365920646869	1008.733962954206	533.958641670553	986.553006454123	1436.122302653797	331.495428696354	1116.264315043186	1368.898609257793	472.290742670376	1064.588820662148	1442.555976591939	657.371611540313	994.240712632873	1496.302984358932	487.694600793034	1079.964233735968	941.742434063445	619.064679118736	1032.611242906077	967.234895019178	347.688898656845	1085.249677109576	731.987604727437	589.677700409848	993.269807213038	632.764791135936	659.669066541185	1051.495403274105	572.669438038595	574.487283167118	1038.972231893012	489.017821582315	581.608974361984	1105.177765490131	779.294105493942	371.077806400584	1055.920893118579	653.380035089112	289.661644289222	1159.377137773018	591.336572657116	347.433177333151	1186.139733933280	528.032575772703	339.839711466351	1169.323742561306	456.689098878439	328.069758688501	1101.704721984559	327.853612530661	275.989466320110	1191.390963982320	227.418198382581	325.130642733684	1006.449157780060	401.255968910219	589.900898709266	932.674036154451	301.300596201625	656.059111289397	965.333248433740	205.067991410752	588.445583224861	823.460330828712	42.863750932985	563.652262038751	996.775169523343	96.385545685666	590.530663883545	910.693554786190	36.846670195843	634.136408188012	1118.203628435335	43.210053184498	610.361906802966	1111.355072383829	45.608814388553	362.829237127267	1183.577325640892	52.137944731913	281.525566520235	1252.399152863127	132.258882953652	301.569785582985	1386.096533978144	106.999403744586	273.045223552957	864.865794811140	1099.252167633293	246.676039100833	854.019293610297	839.087623757207	243.903883737366	1243.028117627220	1170.608280480942	793.831557507405	1484.807536113303	1213.697364699439	722.608596702358	
19	18.916571428571	840.806099905464	1007.811952842247	531.923180340761	985.952652131100	1435.862730264850	330.073026911682	1115.761400585554	1368.524473376181	470.731223640359	1063.924423482149	1441.639814848265	655.922784699998	993.678633222134	1495.644109096442	486.393876692644	1080.418743594089	941.434180518113	617.427211462914	1033.264498328548	966.120630847367	345.876216792757	1084.475209762774	731.233954204681	588.558022827432	991.542471308885	632.583163866096	658.653364236788	1049.293388702836	571.868914473399	573.744088297106	1036.030128543971	488.209420206715	580.819147707451	1105.803351341745	777.754331057403	369.477707012239	1054.754156527543	650.726829358421	290.315235192979	1158.962941435101	589.265768915688	346.758361909387	1184.903077258615	525.335996308719	340.226964060658	1167.469520777825	453.655982052978	329.344548426519	1098.108984485353	325.361751170393	278.755325129990	1186.682484313391	224.331726840807	328.190989029802	1002.995049365862	400.796884806551	589.310865694230	928.591728143303	301.406871069045	655.667946102838	960.693504550815	204.834429451360	588.220653871207	818.143450696074	42.845304073330	563.690981454269	991.425688536892	96.297558063293	590.456889173370	905.361421100143	36.816307970994	634.188318300734	1112.871950862281	43.179496813370	610.403719280460	1104.305984668175	44.910255026235	367.637818741226	1175.970282196021	49.658279864699	285.819105949132	1246.604701485366	127.950857882368	305.184146469157	1379.337797545276	99.622606122040	275.808125616366	861.632220826198	1100.258356293837	245.777759538863	847.031686921847	840.231243945073	244.713409086543	1245.292691303301	1171.505598149856	790.867686074231	1486.487424929969	1219.152229395099	720.607185706352	
20	18.929714285714	841.400045421968	1006.744621136598	529.651891295457	985.341327953901	1435.466123647213	328.414577781801	1115.234705163274	1368.140120695070	468.999489241959	1063.105580603939	1440.680675305587	654.296345489105	993.043251492750	1494.899073128210	484.866380750433	1081.029316698655	941.066053861431	615.699430282836	1034.196573950715	964.899853594614	343.981075857641	1083.931855517935	730.415240355950	587.375342870501	990.018735419313	632.344525902156	657.541595036399	1047.360058081413	570.987982810498	572.942743959933	1033.344718308249	487.295489350488	579.942247446691	1106.865962715878	776.065505470225	367.742354397544	1053.835455022305	647.940206413491	291.046028887667	1158.802233991430	587.052432551540	346.211287487199	1183.711577787805	522.257677862318	340.846417976349	1165.407624789405	450.173527169860	330.832499928587	1093.767710370532	322.758979137381	281.619334851374	1180.650885322000	220.711632160243	331.455603092013	999.750470944468	400.254910915171	588.639313895226	924.671451951607	301.489975231513	655.220075312284	956.125062857907	204.549195374849	587.951451369729	812.832248599905	42.823594381519	563.737835568391	986.066961391022	96.195985176184	590.365756129910	900.033092267077	36.782153277191	634.240780205394	1107.543175117823	43.129678771362	610.448553893179	1094.995404587738	44.141125387118	372.341348385193	1166.216984536017	47.004088433099	290.089799649756	1239.011434279388	122.997398689912	309.105873319123	1370.704827785882	91.014379023589	278.920675750637	858.894953266863	1100.949769374045	244.571501146202	841.157905412179	841.065472158975	244.991654631694	1246.859013081396	1172.017259048973	788.022720342597	1487.516670984564	1223.739954679579	718.856419934526	
21	18.942857142857	842.117438718759	1005.569841312467	527.163691561491	984.745559806866	1434.939070195206	326.518359518793	1114.711325757527	1367.747351250298	467.092321917068	1062.176293502685	1439.701523334310	652.489029601784	992.368338914703	1494.088675162228	483.105474175348	1081.777708714458	940.631372174892	613.880724818232	1035.371294293673	963.605469752029	342.017684292875	1083.635524476838	729.537354649932	586.130502138030	988.723277620803	632.045028321853	656.314641191946	1045.719036237405	570.032353769817	572.058834127030	1030.949134589563	486.278556227408	578.956878310664	1108.253211920974	774.211698576922	365.946943133475	1053.141952380412	645.122600141009	291.769112885567	1158.771890518665	584.721159236996	345.868283340770	1182.478197894922	518.909956889721	341.726779674303	1163.173828539281	446.411061252412	332.463076892725	1088.994899708670	320.100319080978	284.410179577016	1173.773155567985	216.768174246194	334.769789524133	996.738548985244	399.629203575568	587.869089620953	920.941108871301	301.556182252601	654.705722595007	951.641038691221	204.218753783168	587.635468830233	807.530216012964	42.816951303507	563.802758656762	980.711691295237	96.092183650452	590.272944558753	894.714736514591	36.748456811211	634.296692786640	1102.221794424195	43.049888669204	610.498124535664	1084.252785024829	43.282173519656	376.677862038775	1155.184481176526	44.351284610595	294.115172588496	1230.264778215123	117.763109918687	313.169695115031	1360.937139096991	81.891106135069	282.291528114986	856.681031992960	1101.308285963499	243.056386971305	836.413053440209	841.558754639603	244.701167539010	1247.735528811953	1172.104674742415	785.314993049591	1487.921311422991	1227.411404658679	717.364162701537	
